<svg width="251" height="40" fill="none" xmlns="http://www.w3.org/2000/svg"><g clip-path="url(#a)"><mask id="b" style="mask-type:luminance" maskUnits="userSpaceOnUse" x="0" y="0" width="251" height="40"><path d="M.523 0h250v40h-250V0Z" fill="#fff"/></mask><g fill="#fff" mask="url(#b)"><path d="M224.385 22.82h8.14l-3.96-9.12-4.2 9.12h.02Zm-88.26-12.18c-.98-.94-2.3-1.4-3.94-1.4-.68 0-1.6.1-2.74.32V19.6h.72c2.48 0 4.38-.5 5.6-1.5 1.24-1 1.84-2.26 1.84-3.8s-.48-2.72-1.48-3.66Z"/><path d="M44.563 0v40h205.96V0H44.563Zm28.34 20a9.34 9.34 0 0 1-6.48 2.12 18.8 18.8 0 0 1-4.2-.48v7.08c0 2 .3 2.6.48 2.8.42.46 1.08.7 2 .7h1.42v1.44h-12.48v-1.44h1.42c1.02 0 1.72-.3 2.14-.9.14-.2.34-.78.34-2.6V11.98c0-2-.28-2.6-.44-2.8-.46-.46-1.12-.7-2.04-.7h-1.42V7.04h10.4a19.2 19.2 0 0 1 5.9.74 8.4 8.4 0 0 1 3.74 2.54c1 1.2 1.52 2.62 1.52 4.26 0 2.2-.76 4.04-2.3 5.44V20Zm39.3-11.68h-1.4c-.94 0-1.64.36-2.16 1.12-.12.2-.34.78-.34 2.56v10.46a17.817 17.817 0 0 1-.84 6.16c-.6 1.48-1.72 2.8-3.38 3.84-1.66 1.06-3.92 1.6-6.74 1.6a13.32 13.32 0 0 1-7.04-1.54 8.4 8.4 0 0 1-3.44-4.12c-.44-1.18-.66-3.3-.66-6.48V11.8c0-1.86-.32-2.6-.6-2.88-.38-.4-1-.62-1.9-.62h-1.4V6.86h12.48V8.3h-1.42c-1 0-1.66.28-2.06.84-.2.28-.42.96-.42 2.66v11.26c0 .98.1 2.12.3 3.4.18 1.22.52 2.2 1 2.86.48.68 1.16 1.22 2.08 1.66a9.9 9.9 0 0 0 8-.4c1.34-.68 2.28-1.58 2.76-2.64.48-1.1.74-3 .74-5.68V11.8c0-2-.28-2.6-.46-2.8-.44-.48-1.12-.7-2.02-.7h-1.4V6.86h10.32v1.46Zm36.72 25.32h-7.96l-.1-.14-9.2-11.96-1.44.04h-.56l-.2-.02v7.16c0 2 .28 2.6.44 2.78.44.48 1.08.7 2 .7h1.44v1.44h-12.48V32.2h1.4c1.02 0 1.72-.28 2.14-.9.14-.2.36-.76.36-2.6V11.98c0-2-.28-2.6-.46-2.78-.46-.48-1.1-.72-2.04-.72h-1.4V7.04h10.38c2.94 0 5.14.2 6.54.64 1.46.4 2.7 1.2 3.72 2.32a6.224 6.224 0 0 1-.2 8.48c-1.08 1.12-2.68 1.94-4.78 2.46l5.36 6.96a13.534 13.534 0 0 0 3.2 3.32 8.397 8.397 0 0 0 3.48 1l.36.04v1.4-.02Zm20.52-25.16h-1.38c-1 0-1.68.26-2.12.8-.14.18-.4.8-.4 2.7v16.74c0 1.56.12 2.2.22 2.46.1.24.32.44.66.62.52.28 1.06.4 1.64.4h1.38v1.46h-12.52v-1.44h1.36c1 0 1.7-.26 2.14-.8.14-.2.4-.8.4-2.7V11.98c0-1.56-.12-2.2-.24-2.44a1.342 1.342 0 0 0-.64-.64c-.54-.28-1.08-.4-1.66-.4h-1.36V7.04h12.5v1.44h.02Zm40.98-.38v.38h-1.38c-1.04 0-1.74.28-2.16.84-.14.2-.36.8-.36 2.6v22.16h-1.3l-.12-.14-17.54-20.08v14.92c0 1.98.28 2.56.44 2.74.44.46 1.14.7 2.08.7h1.38v1.44h-10.34v-1.44h1.34c1.06 0 1.76-.28 2.18-.84.14-.2.38-.8.38-2.6V11c-.74-.8-1.3-1.36-1.64-1.6-.4-.26-.96-.52-1.72-.74a6.404 6.404 0 0 0-1.66-.16h-.4V7.06h8.04l.12.14 16.22 18.6V11.92c0-1.98-.3-2.58-.48-2.76-.4-.46-1.12-.68-2.08-.68h-1.34V7.04h10.34V8.1Zm34.28 25.54h-11.68v-1.42h.36c1.26-.06 1.78-.28 2-.44.28-.2.42-.48.42-.78 0-.5-.26-1.34-.78-2.48l-1.52-3.5h-10.14l-1.76 3.82c-.54 1.2-.66 1.8-.66 2.1 0 .3.14.54.44.76.24.18.84.4 2.36.5l.38.04v1.4h-9.4v-1.38l.32-.04c1.4-.24 1.86-.52 2.02-.66.64-.58 1.4-1.8 2.2-3.64l9.8-21.24.12-.2h1.34l.1.2 9.34 21.52c.74 1.66 1.4 2.76 2 3.22.54.48 1.34.72 2.38.8h.36v1.42Z"/><path d="M67.243 9.98c-.8-.46-1.76-.68-2.8-.68-.58 0-1.32.1-2.2.3v10.2l1.5.2c.54.06 1 .1 1.36.1a4.4 4.4 0 0 0 3.28-1.4c.92-.98 1.4-2.24 1.4-3.76 0-1.06-.22-2.06-.68-2.98a4.52 4.52 0 0 0-1.88-2l.02.02ZM.523 0v40h42.4V0H.523Zm40.8 38.58H1.963V1.4h39.36v37.2-.02Z"/><path d="M3.563 14.28h12.1V2.88h-12.1v11.4Zm24.22 0h12.12V2.88h-12.12v11.4Zm-12.12 11.44h12.12V14.28h-12.12v11.44Zm-12.1 11.42h12.1V25.72h-12.1v11.42Zm24.22 0h12.12V25.72h-12.12v11.42Z"/></g></g><defs><clipPath id="a"><path fill="#fff" transform="translate(.523)" d="M0 0h250v40H0z"/></clipPath></defs></svg>