<svg width="311" height="40" fill="none" xmlns="http://www.w3.org/2000/svg"><path d="M105.678 22.047h13.6v-1.976h-13.6V7.835h14.73V5.788h-19.059v33.365h19.294v-2.141h-14.965V22.047Zm111.388 6.282c0 6.118-4 9.648-9.929 9.648-5.247 0-9.247-2.8-9.247-9.06V5.789h-4.235v22.283c0 7.482 4.282 11.764 13.011 11.764 9.271 0 12.942-5.53 12.942-11.53V5.789h-2.542V28.33Zm18.965 8.847h-5.671V7.718h7.53c7.953-.142 12.541 4.94 12.541 14.87 0 10.753-5.576 14.706-14.4 14.565m2.447-31.388h-12.447v33.364h10.8c9.718.142 17.953-4.682 17.953-17.082 0-10.424-6-16.47-16.306-16.235m56.282 15.53h-5.058V7.623h7.129c4.777-.048 7.388 2.305 7.388 6.705 0 4.965-4.094 7.083-9.435 7.012m5.341 1.341c1.459-.282 8.236-2.211 8.236-8.353 0-6.117-5.106-8.705-11.248-8.54h-11.717v33.34h4.329V23.2h6.235l9.93 15.93h4.8l-10.565-16.471v.023Zm-35.765-.635h13.553v-1.976H264.36V7.765h14.683V5.788h-18.988v33.365h19.223v-2.141H264.36V22.047Zm-95.223 2.377c.706-1.648 3.576-8.965 5.788-14.777a652.78 652.78 0 0 0 5.812 14.777h-11.6Zm8.306-18.965h-3.365l-13.694 33.694h2.941l5.012-12.753h13.129l5.083 12.753h4.87l-8.635-20.706-5.341-12.988ZM27.137 12.94c0-3.247 2.965-6.094 7.412-6.094s7.506 2.4 8.706 3.435V7.224a19.835 19.835 0 0 0-8.895-2.212c-5.717 0-10.988 3.482-10.988 9.106 0 11.905 18.353 7.623 18.353 16.54 0 3.671-3.364 7.342-8.988 7.342-4.353 0-7.765-2.306-9.365-3.318v3.036c2.753 1.53 6.118 2.33 9.365 2.33 6.753 0 12.847-4 12.847-10.777 0-11.389-18.47-7.53-18.47-16.306m19.27-5.153h10.494v31.34h4.282V7.813h10.448V5.788H46.383v2.024ZM4.337 22.047h13.576v-1.976h-13.6V7.835h14.824V5.788H.078v33.365h19.224v-2.141H4.337V22.047ZM143.984 5.788h-4.212v33.365h19.059v-2.188h-14.823V5.788h-.024Zm-63.6 16.26h13.553V20.07H80.384V7.835h14.682V5.788H76.102v33.365h19.2v-2.141H80.384V22.047ZM95.066 0H75.984v1.93h19.082V0Z" fill="#fff"/></svg>