<svg width="190" height="40" fill="none" xmlns="http://www.w3.org/2000/svg"><g clip-path="url(#a)"><mask id="b" style="mask-type:luminance" maskUnits="userSpaceOnUse" x="0" y="0" width="190" height="40"><path d="M.188 0h188.888v40H.188V0Z" fill="#fff"/></mask><g fill="#fff" mask="url(#b)"><path d="M188.476 39.889c.334 0 .6-.245.6-.578v-4.133a.596.596 0 0 0-.6-.578h-5.488c-1.267 0-4.667-.067-6.534-1a3.746 3.746 0 0 1-1.378-1.044 2.294 2.294 0 0 1-.422-1.423V.667a.598.598 0 0 0-.578-.578h-12a.6.6 0 0 0-.6.578V30.2c0 1.556.356 3 1.023 4 .733 1.089 1.866 2.178 3.333 2.978 4.533 2.489 12.533 2.755 15.644 2.733h7m-160.6-.178c.334 0 .6-.266.6-.6V5.467H43.01c.333 0 .6-.267.6-.6V.733a.6.6 0 0 0-.6-.577H.788a.578.578 0 0 0-.6.577V4.89c0 .311.266.578.6.578h14.51v33.689c0 .31.267.577.6.577h12"/><path d="M67.498 20c0 .578-.156 1.066-.444 1.422-.29.422-.756.755-1.356 1.044-1.867.934-5.267 1-6.555 1H48.697v-4.6c0-.6.133-1.066.4-1.444.311-.4.778-.733 1.378-1.044 1.867-.89 5.267-.978 6.555-.978h2.111c1.29 0 4.667.066 6.556.978.6.31 1.067.666 1.378 1.044.267.378.422.867.422 1.444V20Zm12.978 19.71a.588.588 0 0 0 .578-.577V35a.6.6 0 0 0-.578-.6H57.03c-1.266 0-4.666-.045-6.533-.978a3.71 3.71 0 0 1-1.378-1.044 2.289 2.289 0 0 1-.422-1.423v-2.2h11.956c3.11 0 11.333-.155 15.844-2.377 1.489-.712 2.6-1.556 3.333-2.534 1.556-2.067 1.69-6.222 0-8.489a8.888 8.888 0 0 0-3.333-2.533c-4.511-2.222-12.733-2.378-15.844-2.378h-5.112c-3.133 0-11.333.222-15.866 2.445-1.489.733-2.6 1.733-3.334 2.71-.666.89-1.022 2.223-1.022 3.6v11.734c0 1.422.334 2.711 1.023 3.622.733.978 1.844 1.956 3.333 2.69 4.511 2.221 12.733 2.488 15.844 2.444h24.934v.022h.022Zm60.822-8.2c0 .579-.155 1.067-.444 1.445-.289.4-.756.734-1.356 1.045-1.889.889-5.267.977-6.555.977h-2.112c-1.288 0-4.666-.066-6.555-.977-.6-.311-1.067-.667-1.356-1.045a2.289 2.289 0 0 1-.444-1.444v-1.334c0-.577.155-1.066.444-1.444.289-.4.756-.733 1.356-1.044 1.889-.89 5.267-.978 6.555-.978h10.445v4.8h.022Zm12.333-15.688a9.2 9.2 0 0 0-3.333-2.689c-4.511-2.222-12.733-2.489-15.844-2.467h-20.489a.603.603 0 0 0-.6.6v4.111c0 .334.266.6.6.6h18.955c1.289 0 4.667.067 6.534.978.622.29 1.089.645 1.377 1.045.289.378.445.844.445 1.422V21.4H129.32c-3.111 0-11.333.155-15.866 2.378-1.489.733-2.6 1.555-3.334 2.533a8.22 8.22 0 0 0 0 8.711c.734.978 1.845 1.8 3.334 2.533 4.511 2.223 12.733 2.378 15.844 2.378h5.133c3.112 0 11.334-.244 15.867-2.467a9.199 9.199 0 0 0 3.333-2.688c.667-.912 1-2.223 1-3.623V19.422c0-1.4-.333-2.711-1.022-3.6h.022Zm28.067-13.511h.289l.6.911h.444l-.622-.956c.4-.044.578-.31.578-.622 0-.4-.222-.666-.711-.666h-.978v2.244h.4v-.911Zm0-.356v-.622h.445c.222 0 .444 0 .444.289 0 .333-.2.333-.467.333h-.444.022Z"/><path d="M182.077 3.8a1.71 1.71 0 1 1-.39-3.398 1.71 1.71 0 0 1 .39 3.398Zm0-3.8a2.112 2.112 0 1 0 0 4.224 2.112 2.112 0 0 0 0-4.224ZM86.699 39.111c0 .333.245.6.578.6h12a.588.588 0 0 0 .578-.578V15.978h7.333a.593.593 0 0 0 .578-.6v-4.111a.6.6 0 0 0-.578-.6h-7.333V8.822c0-.578.133-1.044.422-1.422.289-.4.756-.733 1.378-1.044 1.866-.912 5.466-.978 6.755-.978h5.267c.333 0 .6-.267.6-.6V.667a.6.6 0 0 0-.6-.578h-6.778c-3.111 0-11.333.267-15.844 2.733A9.577 9.577 0 0 0 87.72 5.8c-.666 1-1.022 2.444-1.022 4.378v28.978-.045Z"/></g></g><defs><clipPath id="a"><path fill="#fff" transform="translate(.188)" d="M0 0h188.889v40H0z"/></clipPath></defs></svg>