<svg width="222" height="40" fill="none" xmlns="http://www.w3.org/2000/svg"><g clip-path="url(#a)"><mask id="b" style="mask-type:luminance" maskUnits="userSpaceOnUse" x="0" y="0" width="222" height="40"><path d="M.129 0h221.818v40H.129V0Z" fill="#fff"/></mask><g mask="url(#b)"><path d="M47.238 12.364a9.274 9.274 0 0 0-7.527 3.927l-.491.654-.455-.654a9.382 9.382 0 0 0-7.6-3.946c-4.727 0-6.745 3.6-6.745 3.6v-3.6h-2.582v26.946h2.618V21.818a6.8 6.8 0 0 1 6.746-6.836c3.709 0 6.745 3.09 6.745 6.89v17.455h2.564V21.818a6.8 6.8 0 0 1 6.763-6.836c3.71 0 6.728 3.09 6.728 6.89v17.455h2.581V21.818c0-5.2-4.218-9.454-9.363-9.454m26.436 25A11.145 11.145 0 0 1 62.62 26.127c0-6.181 4.945-11.181 11.036-11.181a11.127 11.127 0 0 1 11.036 11.2c0 6.181-4.963 11.218-11.036 11.218Zm11.036-19.455-1.018-1.09a13.563 13.563 0 0 0-10.018-4.473 13.727 13.727 0 0 0-13.618 13.818c0 7.636 6.11 13.8 13.618 13.8 3.782 0 7.455-1.637 10.018-4.455l1.018-1.127v4.909h2.564V12.327h-2.564v5.582Zm39.31-5.545c-2.891 0-5.764 1.163-7.909 3.218l-.982.945V0h-2.564v39.29h2.618V24c0-4.982 4-9.018 8.873-9.018 4.909 0 8.909 4.073 8.909 9.054V39.31h2.546V24a11.585 11.585 0 0 0-11.51-11.6m39.928 13.764c0 6.181-4.964 11.236-11.037 11.236a11.126 11.126 0 0 1-11.036-11.236 11.1 11.1 0 0 1 3.222-7.896 11.105 11.105 0 0 1 7.869-3.286c5.636 0 10.473 4.473 10.982 10.182v1Zm-11.055-13.8c-3.782 0-7.454 1.636-10.018 4.509l-1.018 1.109V.036h-2.564V39.31h2.618V34.4l1.019 1.127A13.592 13.592 0 0 0 152.929 40a13.745 13.745 0 0 0 13.618-13.836c0-7.637-6.127-13.8-13.673-13.8M183.347 37.4a11.147 11.147 0 0 1-11.036-11.236 11.083 11.083 0 0 1 3.197-7.882 11.086 11.086 0 0 1 7.839-3.3 11.145 11.145 0 0 1 11.036 11.2c0 6.182-4.963 11.218-11.036 11.218Zm0-25.018a13.728 13.728 0 0 0-13.6 13.836c0 7.637 6.091 13.8 13.6 13.8a13.746 13.746 0 0 0 13.6-13.836c0-7.636-6.109-13.8-13.6-13.8Zm23.473 8.072-6.509-8.09h-3.346l8.146 10.181 1.691-2.109.018.018Zm3.8 4.691 10.236-12.763h-3.345l-6.509 8.054-.128.182-3.963 4.91-11.018 13.763h3.345l9.709-12.036 9.636 12.036h3.364L210.62 25.146Zm-110.928-.872c-3-.546-5.727-2.328-5.727-4.6 0-2.6 2.691-4.727 5.746-4.727 3.036 0 5.727 1.927 5.691 4.69h2.854c0-4.036-3.818-7.272-8.582-7.272-4.727 0-8.582 3.272-8.582 7.272 0 5.091 5.091 6.673 8.546 7.237 3.691.618 6.436 2.109 6.436 5.29 0 2.91-3 5.2-6.4 5.2-3.382 0-6.072-2.254-6.072-5.254H90.71c0 4.346 3.873 7.855 8.963 7.855 5.091 0 9.219-3.51 9.219-7.855 0-5.964-5.691-7.2-9.219-7.818m-90.581-.018c-3-.546-5.728-2.328-5.728-4.6 0-2.6 2.673-4.727 5.728-4.727 3.054 0 5.763 1.927 5.69 4.69h2.891c0-4.036-3.854-7.272-8.581-7.272-4.746 0-8.6 3.272-8.6 7.272 0 5.091 5.09 6.673 8.527 7.237 3.709.618 6.436 2.109 6.436 5.29 0 2.91-3 5.2-6.382 5.2-3.4 0-6.09-2.254-6.09-5.254H.128c0 4.346 3.873 7.855 8.964 7.855 5.09 0 9.2-3.51 9.2-7.855 0-5.964-5.673-7.2-9.2-7.818v-.018Z" fill="#fff"/></g></g><defs><clipPath id="a"><path fill="#fff" transform="translate(.129)" d="M0 0h221.818v40H0z"/></clipPath></defs></svg>