<svg width="41" height="40" fill="none" xmlns="http://www.w3.org/2000/svg"><g clip-path="url(#a)"><path d="M36.16 4.186C32.39.414 26.96 0 20.333 0 13.703 0 8.261.429 4.475 4.2.732 7.957.332 13.386.332 20c0 6.643.386 12.071 4.143 15.829C8.275 39.614 13.704 40 20.332 40c6.643 0 12.072-.386 15.843-4.143 3.771-3.786 4.157-9.214 4.157-15.857 0-6.629-.386-12.071-4.171-15.829v.015ZM18.847 27.429a.256.256 0 0 1-.257.257h-3.4a.242.242 0 0 1-.257-.257v-8.9c0-.143.114-.243.257-.243h3.4c.143 0 .257.114.257.243v8.9Zm6.672 0a.256.256 0 0 1-.257.257h-3.243a.242.242 0 0 1-.257-.257v-7.672c0-1.343-.072-2.714-.772-3.428-.585-.586-1.714-.715-2.857-.758h-5.871a.256.256 0 0 0-.257.258v11.6c0 .142-.115.257-.243.257H8.503a.242.242 0 0 1-.242-.257V12.643c0-.143.114-.257.242-.257h9.372c2.428 0 5 .114 6.257 1.385 1.243 1.243 1.371 3.715 1.386 6.115v7.543Zm6.671 0a.256.256 0 0 1-.257.257h-3.243a.242.242 0 0 1-.243-.257V12.643c0-.143.115-.257.243-.257h3.243c.143 0 .257.114.257.257v14.786Z" fill="#fff"/></g><defs><clipPath id="a"><path fill="#fff" transform="translate(.332)" d="M0 0h40v40H0z"/></clipPath></defs></svg>