<svg width="210" height="40" fill="none" xmlns="http://www.w3.org/2000/svg"><g clip-path="url(#a)"><path d="M11.116 8.832v-.32c0-2.464 2.464-4.768 4.928-4.768a5.008 5.008 0 0 1 5.088 4.928v.624c0 2.16-2.304 4.48-4.624 4.48h-.912c-2.32 0-4.48-2.32-4.48-4.96v.016ZM.332 2.816v26.512c0 1.392 1.232 2.624 2.464 2.624h26.512c1.392 0 2.464-1.392 2.464-2.784V2.976c0-1.696-1.392-2.624-3.088-2.624H2.956C1.724.352.332 1.6.332 2.816Zm50.24 15.408h11.872l.16 10.64c0 1.072 1.072 1.696 2.144 1.696h.48c1.072 0 2.144-.768 2.144-1.856V4.064c0-1.552-.928-2.176-2.304-2.176-2.784 0-2.624 1.856-2.624 4.64v7.232l-11.872.16V3.744c0-1.232-1.232-1.856-2.304-1.856-1.088 0-2.464.624-2.464 1.696v25.12c0 1.232.912 1.856 2.144 1.856h.32c2.768 0 2.304-2.304 2.304-4.928v-7.408Zm68.128-4c0-.464 2.144-.624 2.608-.624h2.624c3.696 0 4.928 2.624 4.928 6.32v.32c0 4-1.536 6.32-5.392 6.32h-2.16c-.608 0-2.608 0-2.608-.624V14.224Zm3.68 16.48c6.944 0 11.424-3.232 11.424-10.16v-.768c0-6.176-3.872-10.176-9.872-10.176H122.7c-3.84 0-8.768.32-8.768 4.16v23.728c0 1.088 1.232 1.696 2.32 1.696h.16c1.216 0 2.304-.608 2.304-1.84V30.24l3.68.464h-.016Zm19.584-9.696v-2.16c0-3.232 1.696-5.856 4.928-5.856h1.392c4 0 5.088 2.928 5.088 6.928v.16c0 2-.32 3.84-1.232 4.928-.464.624-.928 1.088-1.696 1.392-1.088.464-1.232.32-2.624.464a5.772 5.772 0 0 1-4.624-1.392c-.768-.768-1.232-2.464-1.232-4.48v.016Zm-4.768-1.232v1.072c0 6.624 4 10.176 10.624 10.176 7.088 0 10.64-3.84 10.64-10.784v-.784a11.52 11.52 0 0 0-2.784-7.552c-1.696-1.68-4.464-2.608-7.84-2.608-6.944 0-10.64 3.536-10.64 10.48ZM76.78 21.008v-1.696c0-3.696 1.536-6.16 5.232-6.16h1.392c3.232 0 4.928 2.464 4.928 5.696v2.624c0 3.536-2.16 5.536-5.696 5.536-4.16.16-5.856-2.144-5.856-6Zm-4.944-1.696v.928c0 6.928 3.712 10.624 10.64 10.624h.32c6.608 0 10.32-3.84 10.32-10.48v-1.376c0-6.176-4-9.872-10.176-9.872h-.32c-3.376 0-6 .928-7.84 2.624a10.56 10.56 0 0 0-2.944 7.552ZM175.26 30.56c2.16 0 2.304-1.072 2.304-3.232V21.76c0-4.16-.928-7.856 3.392-7.856h2.928c4.32 0 3.552 3.68 3.552 7.856v5.696c0 2.32.304 3.088 2.608 3.088h.16c.928 0 2.16-.624 2.16-1.536v-12.64c0-2.16-1.072-4-2.32-5.088-1.072-.928-3.536-1.536-5.696-1.536h-4c-5.248 0-7.552 2.768-7.552 8v10.8c0 1.376 1.072 2 2.304 2h.16v.016Zm-72.896-6.16-.16-10.64h6.48c.768 0 1.072-.928 1.072-1.696v-.32c0-.912-.624-1.68-1.536-1.68h-6.176V4.368c0-1.248-1.072-1.856-2.304-1.856h-.16c-1.232 0-2.304.608-2.304 2v20.64c0 3.872 3.232 5.408 7.088 5.408h4.16c.928 0 1.536-.768 1.536-1.696v-.32c.32-4-7.696.944-7.696-4.16v.016Zm99.856-.16c-.304-.464-.16-7.392-.16-8.48 0-2.608-.448-2.16 2.176-2.16h4.32c.768 0 1.072-.768 1.072-1.696V11.6c0-.928-.32-1.376-1.088-1.696l-6.464-.16-.16-6c0-1.072-1.072-1.696-2.304-1.696h-.32c-1.232 0-2.304.768-2.304 2.16V24.4c0 4.48 2.624 6.16 7.088 6.16h4.16c.928 0 1.696-.624 1.696-1.536V28.4c0-2-2.624-1.392-4.624-1.392-1.696 0-3.088-.768-3.088-2.768Zm-39.6 4c0 1.392.768 2.32 2 2.32h.928c.928 0 2-.768 2-1.696V11.6c0-1.072-.928-1.84-2-1.84h-.624c-1.376 0-2.304.768-2.304 2.144v16.352-.016Zm-.624-24.64c0 1.68 1.392 3.072 3.088 3.072 1.536 0 3.088-1.392 3.088-2.768V3.28c0-1.536-1.552-2.768-3.088-2.768s-3.088 1.536-3.088 3.072V3.6Zm40.224 20.64V13.76l6.32-.16h-4.32c-2.608 0-2.144-.448-2.144 2.16.16 1.232 0 8.16.16 8.48h-.016ZM62.444 13.76H50.572l-.16-10.176V13.76h12.032Zm39.92 10.64V13.76l6.32-.16h-6.48l.16 10.8Z" fill="#fff"/></g><defs><clipPath id="a"><path fill="#fff" transform="translate(.332)" d="M0 0h209.6v40H0z"/></clipPath></defs></svg>