<svg width="144" height="40" fill="none" xmlns="http://www.w3.org/2000/svg"><g clip-path="url(#a)"><path d="M21.75 3.109c0 1.382-1.12 2.514-2.48 2.514a2.537 2.537 0 0 1-2.514-2.514A2.537 2.537 0 0 1 19.27.594c1.36 0 2.48 1.143 2.48 2.515Zm6.4.308c.389 0 .686.092 1.337.503a19.2 19.2 0 0 1 8.846 15.977c0 5.303-1.966 10.149-5.52 13.714A18.926 18.926 0 0 1 19.27 39.03 19.2 19.2 0 0 1 5.727 33.61C2.093 30.103.207 25.2.207 19.886.207 13.05 3.978 7.2 9.041 3.909c.652-.412.96-.503 1.338-.503.937 0 1.77.685 1.77 1.748 0 .8-.433 1.315-1.222 1.863A15.463 15.463 0 0 0 3.956 19.99c0 4.365 1.6 8.4 4.537 11.337a15.05 15.05 0 0 0 10.777 4.457c4.149 0 7.909-1.612 10.766-4.457a15.885 15.885 0 0 0 4.548-11.337c0-5.406-2.651-10.035-6.971-12.972-.8-.526-1.223-1.051-1.223-1.863 0-1.051.834-1.748 1.76-1.748v.011ZM19.27 31.75c-1.097 0-1.943-.88-1.943-2.035V11.566c0-1.177.823-2.035 1.943-2.035 1.097 0 1.943.858 1.943 2.035v18.148c0 1.177-.846 2.035-1.943 2.035Zm30.354-2.058h-2.857c-.229 0-.32-.091-.32-.342V12.263c0-.206.103-.309.309-.309h2.868c.172 0 .263.103.263.309V29.37c0 .229-.091.343-.263.343v-.023Zm19.189 0h-2.8c-.195 0-.309-.091-.309-.308v-9.989c0-3.154-1.245-4.274-4.297-4.274h-3.828a.23.23 0 0 0-.23.24v14.023c0 .217-.113.308-.296.308h-2.857c-.195 0-.32-.091-.32-.308V12.25c0-.205.114-.308.308-.308h7.452c4.64 0 7.485 2.228 7.485 6.663v10.777c-.022.217-.102.308-.308.308ZM76.64 26.4h2.366c3.703 0 5.303-2.469 5.303-5.566 0-3.108-1.623-5.565-5.257-5.565h-2.434c-.172 0-.24.114-.24.228v10.686c0 .091.09.217.262.217Zm-3.703-14.149c0-.205.115-.285.286-.285h5.017c6.903 0 9.703 4.011 9.703 8.845 0 4.915-2.731 8.88-10.057 8.88h-4.663c-.171 0-.285-.091-.285-.308V12.25Zm29.383 7.006c.069-2.697-1.485-4.686-4.137-4.686-2.4 0-4.057 1.886-4.148 4.686m11.485 2.857c-.103.126-.343.149-.548.149H94.116c.125 2.971 2.377 4.686 6.034 4.686 1.714 0 3.223-.48 4.32-.938.308-.114.377.023.377.389l.046 2.526c0 .228-.046.343-.309.434-1.097.434-3.12.766-4.731.766-2.857 0-5.177-.766-6.777-2.229-1.715-1.543-2.629-3.908-2.629-6.948 0-5.589 3.154-9.452 7.84-9.452 4.8 0 7.474 3.703 7.474 8.709.023 1.394-.08 1.703-.24 1.92v-.012Zm8.057 7.989c-1.588 0-3.714-.366-4.834-.72-.343-.114-.411-.217-.411-.48l.08-2.674c0-.218.091-.286.308-.218 1.292.549 3.155.983 5.326.983 2.846 0 3.703-1.097 3.703-2.171 0-1.074-.617-1.6-2.48-2.057l-2.08-.503c-3.28-.8-4.88-2.24-4.88-5.257 0-3.086 2.297-5.566 6.72-5.566 1.783 0 3.84.32 4.96.571.24.08.388.126.388.435l-.022 2.514c0 .229-.149.263-.412.206a23.656 23.656 0 0 0-4.914-.617c-2.252 0-3.154 1.074-3.154 2.194 0 1.131.548 1.886 2.891 2.468l1.691.4c3.223.812 4.823 2.252 4.823 4.972.023 3.131-2.125 5.52-7.714 5.52h.011Zm14.126-.412h-2.857c-.229 0-.286-.091-.286-.342V12.263c0-.206.092-.309.286-.309h2.857c.194 0 .263.103.263.309V29.37c0 .229-.069.343-.263.343v-.023Zm15.589-14.571h-4.069a.235.235 0 0 0-.24.24v14.091c0 .149-.091.24-.24.24h-2.983a.227.227 0 0 1-.24-.228V15.349c0-.115-.091-.229-.217-.229h-4.057a.232.232 0 0 1-.24-.229v-2.72c0-.137.091-.228.229-.228h12.045c.115 0 .24.091.24.228v2.72c0 .115-.114.229-.228.229Z" fill="#fff"/></g><defs><clipPath id="a"><path fill="#fff" transform="translate(.664)" d="M0 0h142.857v40H0z"/></clipPath></defs></svg>