<svg width="119" height="40" fill="none" xmlns="http://www.w3.org/2000/svg"><g clip-path="url(#a)"><mask id="b" style="mask-type:luminance" maskUnits="userSpaceOnUse" x="0" y="0" width="119" height="40"><path d="M.945 0h117.242v40H.945V0Z" fill="#fff"/></mask><g fill="#fff" mask="url(#b)"><path d="m.945 4.331 6.042 22.593h3.476l4.33-16.414 4.263 16.414h3.49l6.04-22.593h-3.475l-4.276 16.414L16.463 4.33h-3.449L8.697 20.745 4.407 4.33H.945Zm42.028 22.607c-.345-8.041 2.538-19.78-9.338-15.228.096-1.379.069-6.151.069-7.558l-3.476.29v22.496h3.476V14.483c2.483-.62 5.78-1.462 5.78 2.896v9.573h3.489v-.014Zm4.73-22.304c-2.896-.137-2.827 4.676 0 4.538 2.842.138 2.966-4.69 0-4.551v.013Zm1.739 6.4h-3.476v15.89h3.476v-15.89Zm9.02 3.104c.649.014 1.31.083 1.96.207v-3.517a6.552 6.552 0 0 0-4.994 1.517h-.22l-.442-1.31h-2.372v15.862h3.475V14.814a5.795 5.795 0 0 1 2.607-.676h-.013Zm3.449-9.724v22.51h3.476V4.11l-3.462.29-.014.014Zm28.096 22.841c9.462.855 9.214-17.434.056-16.441-9.27-.993-9.628 17.241-.056 16.441Zm.097-13.655c4.607-.345 4.51 11.269-.152 10.841-4.772.249-4.58-11.31.138-10.841h.014Z"/><path d="M98.67 19.048c-1.103 10.952 14.924 10.98 13.793 0 1.241-11.062-14.924-10.951-13.793 0Zm10.262 0c.731 7.2-7.517 7.09-6.759 0-.689-7.227 7.587-7.324 6.759 0Zm5.779-14.634v22.51h3.476V4.11l-3.476.29v.014ZM85.87 1.269c-2.607-3.09-10.828-.372-20.041 6.152v1.655c25.2-17.38 19.586 1.103 6.303 12.938-9.986 10.896-36.028 24.965-24.097 4.91h-1.627c-11.793 19.393 7.076 14.87 22.276 1.655C75.11 23.172 89.856 8.676 85.87 1.27Z"/><path d="m78.489 19.517-.359.4c-.345 3.462-1.765 4.221-3.876 4.138a73.65 73.65 0 0 1-5.558 5.049v5.407l3.475-.387v-7.283c6.635 2.125 11.063-3.655 9.283-10.993a67.38 67.38 0 0 1-2.965 3.67Zm-6.621 2.207.276-.276V14.69c1.655-.593 4.414-.828 5.434.772a56.854 56.854 0 0 0 2.304-3.09c-2.166-2.482-5.793-1.572-8.318-.179l-.275-1.158h-2.621v13.669a56.28 56.28 0 0 0 3.214-2.98h-.014Z"/></g></g><defs><clipPath id="a"><path fill="#fff" transform="translate(.945)" d="M0 0h117.241v40H0z"/></clipPath></defs></svg>