<svg width="281" height="40" fill="none" xmlns="http://www.w3.org/2000/svg"><g clip-path="url(#a)"><mask id="b" style="mask-type:luminance" maskUnits="userSpaceOnUse" x="0" y="0" width="281" height="40"><path d="M.523 0h280v40h-280V0Z" fill="#fff"/></mask><g mask="url(#b)"><path d="M14.635 23.956a199.982 199.982 0 0 1 7.333-12.334 246.658 246.658 0 0 1 1.467 12.334c-1.844.11-3.378.177-4.533.177-1.156 0-2.534-.066-4.267-.177Zm10.067 14.888c2.155-.31 3.778-.489 4.889-.489 1.377 0 3.178.178 5.377.512a221.772 221.772 0 0 1-4.644-25.156L28.48.822c-1.111.156-1.845.222-2.311.222A18.89 18.89 0 0 1 23.59.822 772.03 772.03 0 0 1 1.035 38.844c1.378-.177 2.378-.222 3.067-.222.51 0 1.466.045 2.889.222 1.266-3.066 2.577-5.377 3.578-7.2l1.955-3.622c2.467-.222 4.222-.333 5.222-.333 1.534 0 3.578.11 6.156.333l.378 3.556c.222 2.044.466 4 .466 5.933 0 .444 0 .889-.044 1.333Z" fill="#fff"/><path d="M24.702 38.867c2.155-.334 3.778-.511 4.889-.511 1.377 0 3.178.177 5.377.51a221.772 221.772 0 0 1-4.644-25.155L28.48.822c-1.111.156-1.845.222-2.311.222A18.89 18.89 0 0 1 23.59.822 772.03 772.03 0 0 1 1.035 38.844c1.378-.177 2.378-.222 3.067-.222.51 0 1.466.045 2.889.222 1.266-3.066 2.577-5.377 3.578-7.2l1.955-3.622c2.467-.222 4.222-.333 5.222-.333 1.534 0 3.578.11 6.156.333l.378 3.556c.222 2.044.466 4 .466 5.933 0 .444 0 .889-.044 1.333v.023Z" stroke="#fff" stroke-width=".88"/><path d="M14.637 23.955a199.951 199.951 0 0 1 7.333-12.333 246.63 246.63 0 0 1 1.467 12.333c-1.845.112-3.378.178-4.534.178-1.155 0-2.533-.066-4.266-.178Z" stroke="#fff" stroke-width=".88"/><path d="M53.814 39.6c-9.666 0-15.022-5.556-15.022-14.356A17.776 17.776 0 0 1 44.348 12a18.978 18.978 0 0 1 13.178-5.2c4.555 0 8.333 1.044 11.177 3.022a54.21 54.21 0 0 0-2.11 6.444l-.579-.133c-.733-4.044-3.622-6.4-7.866-6.4a9.333 9.333 0 0 0-8.49 4.689c-1.844 2.889-3.11 7.333-3.11 11.911 0 6.622 2.933 10.156 8.489 10.156 3.022 0 6.133-1.29 8.622-3.667l.622.644a20.474 20.474 0 0 0-1.333 4c-2.445 1.334-5.6 2.111-9.134 2.111" fill="#fff"/><path d="M53.814 39.6c-9.666 0-15.022-5.556-15.022-14.356A17.776 17.776 0 0 1 44.348 12a18.978 18.978 0 0 1 13.178-5.2c4.555 0 8.333 1.044 11.177 3.022a54.21 54.21 0 0 0-2.11 6.444l-.579-.133c-.733-4.044-3.622-6.4-7.866-6.4a9.333 9.333 0 0 0-8.49 4.689c-1.844 2.889-3.11 7.333-3.11 11.911 0 6.622 2.933 10.156 8.489 10.156 3.022 0 6.133-1.29 8.622-3.667l.622.644a20.474 20.474 0 0 0-1.333 4c-2.445 1.334-5.6 2.111-9.134 2.111v.023Z" stroke="#fff" stroke-width=".88"/><path d="M83.635 39.6c-9.69 0-15.023-5.556-15.023-14.356A17.777 17.777 0 0 1 74.168 12a18.978 18.978 0 0 1 13.156-5.2c4.555 0 8.31 1.045 11.177 3.022-.8 2-1.489 4.111-2.11 6.445l-.579-.134c-.733-4.044-3.622-6.4-7.866-6.4a9.333 9.333 0 0 0-8.49 4.69c-1.844 2.888-3.11 7.333-3.11 11.91 0 6.623 2.933 10.156 8.489 10.156 3.022 0 6.133-1.289 8.622-3.667l.622.645a20.889 20.889 0 0 0-1.333 4c-2.445 1.333-5.578 2.11-9.111 2.11" fill="#fff"/><path d="M83.635 39.6c-9.69 0-15.023-5.556-15.023-14.356A17.777 17.777 0 0 1 74.168 12a18.978 18.978 0 0 1 13.156-5.2c4.555 0 8.31 1.045 11.177 3.022-.8 2-1.489 4.111-2.11 6.445l-.579-.134c-.733-4.044-3.622-6.4-7.866-6.4a9.333 9.333 0 0 0-8.49 4.69c-1.844 2.888-3.11 7.333-3.11 11.91 0 6.623 2.933 10.156 8.489 10.156 3.022 0 6.133-1.289 8.622-3.667l.622.645a20.889 20.889 0 0 0-1.333 4c-2.445 1.333-5.578 2.11-9.111 2.11v.023Z" stroke="#fff" stroke-width=".88"/><path d="M107.079 7.778c.822 0 2.133-.111 3.844-.334-3.289 12.667-4.444 20.334-4.444 22.623 0 3.51 2.044 5.533 5.778 5.533 3.711 0 6.711-2 8.466-5.8 1.334-2.889 2.578-10.4 4.556-22.356 1.474.207 2.97.207 4.444 0-3.178 13.423-4.444 21.89-6.111 25.067-2.489 4.733-6.711 6.933-12.867 6.933-7.4 0-11.155-3.022-11.155-9 0-3.489 1.955-11.089 3.555-23 1.734.178 3.045.334 3.912.334" fill="#fff"/><path d="M107.079 7.778c.822 0 2.133-.111 3.844-.334-3.289 12.667-4.444 20.334-4.444 22.623 0 3.51 2.044 5.533 5.778 5.533 3.711 0 6.711-2 8.466-5.8 1.334-2.889 2.578-10.4 4.556-22.356 1.474.207 2.97.207 4.444 0-3.178 13.423-4.444 21.89-6.111 25.067-2.489 4.733-6.711 6.933-12.867 6.933-7.4 0-11.155-3.022-11.155-9 0-3.489 1.955-11.089 3.555-23 1.734.178 3.045.334 3.912.334h.022Z" stroke="#fff" stroke-width=".88"/><path d="M130.658 24.511c2.222.134 4 .267 5.222.267 1.822 0 4.067-.133 6.6-.267-.556 2.023-.956 4.045-1.133 6.067a87.383 87.383 0 0 0-6.178-.333c-1.267 0-3.156.155-5.556.333a31.44 31.44 0 0 0 1.045-6.067Z" fill="#fff"/><path d="M130.658 24.511c2.222.134 4 .267 5.222.267 1.822 0 4.067-.133 6.6-.267-.556 2.023-.956 4.045-1.133 6.067a87.383 87.383 0 0 0-6.178-.333c-1.267 0-3.156.155-5.556.333a31.44 31.44 0 0 0 1.045-6.067Z" stroke="#fff" stroke-width=".88"/><path d="M163.192 39.733c-11.644 0-18.066-6.689-18.066-17.266a21.367 21.367 0 0 1 6.666-15.956c4.297-4.06 10-6.298 15.911-6.244 5.467 0 10 1.266 13.423 3.644a72.199 72.199 0 0 0-2.534 7.756l-.666-.156c-.889-4.889-4.378-7.711-9.489-7.711-4.489 0-7.756 1.778-10.222 5.644-2.223 3.49-3.756 8.823-3.756 14.356 0 7.978 3.533 12.222 10.222 12.222 3.645 0 7.378-1.555 10.378-4.422l.756.778a24.995 24.995 0 0 0-1.6 4.822 23.202 23.202 0 0 1-11 2.533" fill="#fff"/><path d="M163.192 39.733c-11.644 0-18.066-6.689-18.066-17.266a21.367 21.367 0 0 1 6.666-15.956c4.297-4.06 10-6.298 15.911-6.244 5.467 0 10 1.266 13.423 3.644a72.199 72.199 0 0 0-2.534 7.756l-.666-.156c-.889-4.889-4.378-7.711-9.489-7.711-4.489 0-7.756 1.778-10.222 5.644-2.223 3.49-3.756 8.823-3.756 14.356 0 7.978 3.533 12.222 10.222 12.222 3.645 0 7.378-1.555 10.378-4.422l.756.778a24.995 24.995 0 0 0-1.6 4.822 23.202 23.202 0 0 1-11 2.533h-.023Z" stroke="#fff" stroke-width=".88"/><path d="M188.659 30.844c-.533 2.623-.889 5.311-1.111 8a31.109 31.109 0 0 0-3.978-.31 31.117 31.117 0 0 0-4 .333c3.534-14 5.445-24.534 6.156-31.423 1.6.178 2.844.334 3.778.334.977 0 2.333-.111 4.089-.334-.912 3.178-1.356 5.467-1.667 6.956l-1.178 5.6c3.895.142 7.794.142 11.689 0l.911-4.556c.4-1.977.845-4.644 1.178-8 1.711.223 3.022.334 4 .334a31.12 31.12 0 0 0 3.978-.334c-3.511 14-5.423 24.511-6.134 31.423-1.666-.223-2.844-.334-3.555-.334-1.245 0-2.689.134-4.356.334.822-3.223 1.334-5.556 1.667-6.956l1.644-8.133c-2.266-.09-4.377-.2-6.333-.2-.933 0-2.667.066-5.333.2l-1.445 7.066Z" fill="#fff"/><path d="M188.659 30.844c-.533 2.623-.889 5.311-1.111 8a31.109 31.109 0 0 0-3.978-.31 31.117 31.117 0 0 0-4 .333c3.534-14 5.445-24.534 6.156-31.423 1.6.178 2.844.334 3.778.334.977 0 2.333-.111 4.089-.334-.912 3.178-1.356 5.467-1.667 6.956l-1.178 5.6c3.895.142 7.794.142 11.689 0l.911-4.556c.4-1.977.845-4.644 1.178-8 1.711.223 3.022.334 4 .334a31.12 31.12 0 0 0 3.978-.334c-3.511 14-5.423 24.511-6.134 31.423-1.666-.223-2.844-.334-3.555-.334-1.245 0-2.689.134-4.356.334.822-3.223 1.334-5.556 1.667-6.956l1.644-8.133c-2.266-.09-4.377-.2-6.333-.2-.933 0-2.667.066-5.333.2l-1.445 7.066Z" stroke="#fff" stroke-width=".88"/><path d="M218.369 7.444c2.844.223 5.511.334 8.044.334 2.556 0 5.778-.156 9.556-.334-.623 1.29-.889 2.578-.978 4.045a46.05 46.05 0 0 0-7.333-.645c-.8 0-1.556.067-2.334.09-.489 1.244-.755 2.621-1.044 4.2l-.978 5.244c1.778.089 3.111.177 3.844.177 1.712 0 3.645-.133 5.778-.266-.444 1.133-.666 2.222-.666 3.444v.6a72.732 72.732 0 0 0-7.689-.422l-1.934.044-1.222 6c-.378 1.956-.689 3.712-.822 5.223 3.444-.045 7.044-.267 10.8-.6a20.195 20.195 0 0 0-.889 4.289 203.68 203.68 0 0 0-9.6-.29c-1.844 0-4.733.09-8.578.29a211.096 211.096 0 0 0 6.045-31.423Z" fill="#fff"/><path d="M218.369 7.444c2.844.223 5.511.334 8.044.334 2.556 0 5.778-.156 9.556-.334-.623 1.29-.889 2.578-.978 4.045a46.05 46.05 0 0 0-7.333-.645c-.8 0-1.556.067-2.334.09-.489 1.244-.755 2.621-1.044 4.2l-.978 5.244c1.778.089 3.111.177 3.844.177 1.712 0 3.645-.133 5.778-.266-.444 1.133-.666 2.222-.666 3.444v.6a72.732 72.732 0 0 0-7.689-.422l-1.934.044-1.222 6c-.378 1.956-.689 3.712-.822 5.223 3.444-.045 7.044-.267 10.8-.6a20.195 20.195 0 0 0-.889 4.289 203.68 203.68 0 0 0-9.6-.29c-1.844 0-4.733.09-8.578.29a211.096 211.096 0 0 0 6.045-31.423Z" stroke="#fff" stroke-width=".88"/><path d="m246.946 15.111-1.267 6.733 5.955-5.555c1.734-1.667 4.423-4.622 7.867-8.845 1.333.178 2.2.267 2.667.267.711 0 1.666-.089 2.933-.267l-.044.556a219.169 219.169 0 0 0-13.911 13.422 398.251 398.251 0 0 0 8.355 17.445c-1.711-.178-3.067-.29-4.111-.29-1.156 0-2.622.112-4.444.29a105.6 105.6 0 0 0-5.845-13.712l-1 4.667a86.158 86.158 0 0 0-1.311 9.045c-1.778-.223-3.111-.334-4.067-.334-.977 0-2.2.09-3.844.334 3.889-15.556 5.622-26.178 6.067-31.423 1.755.223 2.933.311 3.644.311 1.178 0 2.622-.088 4.267-.266a48.314 48.314 0 0 0-1.911 7.622Z" fill="#fff"/><path d="m246.946 15.111-1.267 6.733 5.955-5.555c1.734-1.667 4.423-4.622 7.867-8.845 1.333.178 2.2.267 2.667.267.711 0 1.666-.089 2.933-.267l-.044.556a219.169 219.169 0 0 0-13.911 13.422 398.251 398.251 0 0 0 8.355 17.445c-1.711-.178-3.067-.29-4.111-.29-1.156 0-2.622.112-4.444.29a105.6 105.6 0 0 0-5.845-13.712l-1 4.667a86.158 86.158 0 0 0-1.311 9.045c-1.778-.223-3.111-.334-4.067-.334-.977 0-2.2.09-3.844.334 3.889-15.556 5.622-26.178 6.067-31.423 1.755.223 2.933.311 3.644.311 1.178 0 2.622-.088 4.267-.266a48.314 48.314 0 0 0-1.911 7.622Z" stroke="#fff" stroke-width=".88"/><path d="M275.746 7.644a3.907 3.907 0 0 1 3.741 2.501 3.91 3.91 0 0 1 .259 1.566c0 1-.444 2-1.178 2.733a3.996 3.996 0 0 1-5.384.3 3.998 3.998 0 0 1-.789-5.335 4.002 4.002 0 0 1 3.351-1.765Zm0-.8c-1.733 0-3.222.845-4.089 2.29a4.711 4.711 0 0 0 .667 5.8 4.711 4.711 0 0 0 6.778.066c.933-.889 1.422-2.067 1.422-3.378a4.756 4.756 0 0 0-4.778-4.778Zm-2 2.045v5.289h1.311V12h.623l1.022 2.178h1.422l-1.178-2.378c.734-.178 1.156-.711 1.156-1.4 0-1.022-.756-1.511-2.267-1.511h-2.089Zm1.311.8h.556c.778 0 1.155.222 1.155.8 0 .533-.355.733-1.088.733h-.623V9.69Z" fill="#fff"/></g></g><defs><clipPath id="a"><path fill="#fff" transform="translate(.523)" d="M0 0h280v40H0z"/></clipPath></defs></svg>