<svg width="32" height="32" viewBox="0 0 32 32" fill="none" xmlns="http://www.w3.org/2000/svg">
<g clip-path="url(#clip0_1421_2709)">
<path fill-rule="evenodd" clip-rule="evenodd" d="M26.9987 2.33325C26.6305 2.33325 26.332 2.63173 26.332 2.99992V4.99992C26.332 5.36811 26.6305 5.66658 26.9987 5.66658H28.9987C29.3669 5.66658 29.6654 5.36811 29.6654 4.99992V2.99992C29.6654 2.63173 29.3669 2.33325 28.9987 2.33325H26.9987ZM24.332 2.99992C24.332 1.52716 25.5259 0.333252 26.9987 0.333252H28.9987C30.4715 0.333252 31.6654 1.52716 31.6654 2.99992V4.99992C31.6654 6.47268 30.4715 7.66658 28.9987 7.66658H26.9987C25.5259 7.66658 24.332 6.47268 24.332 4.99992V2.99992Z" fill="#292758"/>
<path fill-rule="evenodd" clip-rule="evenodd" d="M2.9987 2.33325C2.63051 2.33325 2.33203 2.63173 2.33203 2.99992V4.99992C2.33203 5.36811 2.63051 5.66658 2.9987 5.66658H4.9987C5.36689 5.66658 5.66536 5.36811 5.66536 4.99992V2.99992C5.66536 2.63173 5.36689 2.33325 4.9987 2.33325H2.9987ZM0.332031 2.99992C0.332031 1.52716 1.52594 0.333252 2.9987 0.333252H4.9987C6.47146 0.333252 7.66536 1.52716 7.66536 2.99992V4.99992C7.66536 6.47268 6.47146 7.66658 4.9987 7.66658H2.9987C1.52594 7.66658 0.332031 6.47268 0.332031 4.99992V2.99992Z" fill="#292758"/>
<path fill-rule="evenodd" clip-rule="evenodd" d="M26.9987 26.3333C26.6305 26.3333 26.332 26.6317 26.332 26.9999V28.9999C26.332 29.3681 26.6305 29.6666 26.9987 29.6666H28.9987C29.3669 29.6666 29.6654 29.3681 29.6654 28.9999V26.9999C29.6654 26.6317 29.3669 26.3333 28.9987 26.3333H26.9987ZM24.332 26.9999C24.332 25.5272 25.5259 24.3333 26.9987 24.3333H28.9987C30.4715 24.3333 31.6654 25.5272 31.6654 26.9999V28.9999C31.6654 30.4727 30.4715 31.6666 28.9987 31.6666H26.9987C25.5259 31.6666 24.332 30.4727 24.332 28.9999V26.9999Z" fill="#292758"/>
<path fill-rule="evenodd" clip-rule="evenodd" d="M2.9987 26.3333C2.63051 26.3333 2.33203 26.6317 2.33203 26.9999V28.9999C2.33203 29.3681 2.63051 29.6666 2.9987 29.6666H4.9987C5.36689 29.6666 5.66536 29.3681 5.66536 28.9999V26.9999C5.66536 26.6317 5.36689 26.3333 4.9987 26.3333H2.9987ZM0.332031 26.9999C0.332031 25.5272 1.52594 24.3333 2.9987 24.3333H4.9987C6.47146 24.3333 7.66536 25.5272 7.66536 26.9999V28.9999C7.66536 30.4727 6.47146 31.6666 4.9987 31.6666H2.9987C1.52594 31.6666 0.332031 30.4727 0.332031 28.9999V26.9999Z" fill="#292758"/>
<path fill-rule="evenodd" clip-rule="evenodd" d="M5.66406 4C5.66406 3.44772 6.11178 3 6.66406 3H25.3307C25.883 3 26.3307 3.44772 26.3307 4C26.3307 4.55228 25.883 5 25.3307 5H6.66406C6.11178 5 5.66406 4.55228 5.66406 4Z" fill="#292758"/>
<path fill-rule="evenodd" clip-rule="evenodd" d="M28 5.6665C28.5523 5.6665 29 6.11422 29 6.6665V25.3332C29 25.8855 28.5523 26.3332 28 26.3332C27.4477 26.3332 27 25.8855 27 25.3332V6.6665C27 6.11422 27.4477 5.6665 28 5.6665Z" fill="#292758"/>
<path fill-rule="evenodd" clip-rule="evenodd" d="M5.66406 28C5.66406 27.4477 6.11178 27 6.66406 27H25.3307C25.883 27 26.3307 27.4477 26.3307 28C26.3307 28.5523 25.883 29 25.3307 29H6.66406C6.11178 29 5.66406 28.5523 5.66406 28Z" fill="#292758"/>
<path fill-rule="evenodd" clip-rule="evenodd" d="M4 5.6665C4.55228 5.6665 5 6.11422 5 6.6665V25.3332C5 25.8855 4.55228 26.3332 4 26.3332C3.44772 26.3332 3 25.8855 3 25.3332V6.6665C3 6.11422 3.44772 5.6665 4 5.6665Z" fill="#292758"/>
<path fill-rule="evenodd" clip-rule="evenodd" d="M16.3836 7.07694C16.8934 7.28936 17.1345 7.87483 16.922 8.38463L10.2554 24.3846C10.043 24.8944 9.45748 25.1355 8.94768 24.9231C8.43788 24.7107 8.1968 24.1252 8.40922 23.6154L15.0759 7.6154C15.2883 7.1056 15.8738 6.86452 16.3836 7.07694Z" fill="#8060F6"/>
<path fill-rule="evenodd" clip-rule="evenodd" d="M15.6156 7.07694C16.1254 6.86452 16.7109 7.1056 16.9233 7.6154L23.59 23.6154C23.8024 24.1252 23.5613 24.7107 23.0515 24.9231C22.5417 25.1355 21.9563 24.8944 21.7438 24.3846L15.0772 8.38463C14.8648 7.87483 15.1058 7.28936 15.6156 7.07694Z" fill="#8060F6"/>
<path fill-rule="evenodd" clip-rule="evenodd" d="M10.5586 18.6665C10.5586 18.1142 11.0063 17.6665 11.5586 17.6665H20.4386C20.9909 17.6665 21.4386 18.1142 21.4386 18.6665C21.4386 19.2188 20.9909 19.6665 20.4386 19.6665H11.5586C11.0063 19.6665 10.5586 19.2188 10.5586 18.6665Z" fill="#8060F6"/>
</g>
<defs>
<clipPath id="clip0_1421_2709">
<rect width="32" height="32" fill="white"/>
</clipPath>
</defs>
</svg>
