<svg width="24" height="24" fill="none" xmlns="http://www.w3.org/2000/svg"><path d="M22.366 6.377c-.78.347-1.609.574-2.457.674a4.286 4.286 0 0 0 1.881-2.367c-.84.498-1.758.85-2.717 1.038a4.274 4.274 0 0 0-3.123-1.35 4.279 4.279 0 0 0-4.167 5.253 12.148 12.148 0 0 1-8.82-4.47 4.257 4.257 0 0 0-.578 2.15c0 1.485.755 2.795 1.903 3.562a4.265 4.265 0 0 1-1.938-.536v.054a4.282 4.282 0 0 0 3.432 4.196c-.63.17-1.291.195-1.933.072a4.283 4.283 0 0 0 3.997 2.972 8.584 8.584 0 0 1-6.334 1.771A12.107 12.107 0 0 0 8.07 21.32c7.87 0 12.174-6.52 12.174-12.174 0-.185-.004-.37-.012-.554a8.666 8.666 0 0 0 2.134-2.214Z" fill="url(#a)"/><defs><linearGradient id="a" x1="1.512" y1="4.371" x2="24.654" y2="17.188" gradientUnits="userSpaceOnUse"><stop stop-color="#A088FB"/><stop offset="1" stop-color="#B8A6FB"/></linearGradient></defs></svg>