<svg width="65" height="64" viewBox="0 0 65 64" fill="none" xmlns="http://www.w3.org/2000/svg">
<rect x="1.5" y="1" width="62" height="62" rx="31" fill="#8060F6"/>
<rect x="1.5" y="1" width="62" height="62" rx="31" stroke="white" stroke-width="2"/>
<path d="M27.1487 23.4812C27.4021 23.2532 27.8328 23.0941 28.2713 23.3042C28.3041 23.3199 28.3357 23.338 28.3658 23.3583L39.7511 31.017C39.7767 31.0342 39.8012 31.053 39.8245 31.0733C39.9599 31.1909 40.067 31.3364 40.1398 31.4984C40.2127 31.6603 40.25 31.8357 40.25 32.0126C40.25 32.1894 40.2127 32.3649 40.1398 32.5268C40.067 32.6888 39.9599 32.8342 39.8245 32.9519C39.8007 32.9726 39.7755 32.9918 39.7493 33.0094L28.3716 40.6148C27.955 40.905 27.4746 40.8094 27.1712 40.5574C26.8903 40.3242 26.75 39.9709 26.75 39.6231V24.402C26.75 24.047 26.8941 23.7102 27.1487 23.4812Z" fill="white"/>
</svg>
