<svg width="24" height="24" viewBox="0 0 24 24" fill="none" xmlns="http://www.w3.org/2000/svg">
<path fill-rule="evenodd" clip-rule="evenodd" d="M13.3061 10.9415C12.9782 11.2674 12.5347 11.4503 12.0723 11.4503C11.61 11.4503 11.1665 11.2674 10.8386 10.9415L10.837 10.9399L6.72701 6.82989C6.43412 6.53699 6.43412 6.06212 6.72701 5.76923C7.01991 5.47633 7.49478 5.47633 7.78767 5.76923L11.8961 9.87765C11.8963 9.87783 11.8959 9.87747 11.8961 9.87765C11.9429 9.92387 12.0066 9.95035 12.0723 9.95035C12.1381 9.95035 12.2013 9.92441 12.2481 9.87818C12.2482 9.87801 12.2479 9.87836 12.2481 9.87818L16.247 5.87922C16.5399 5.58633 17.0148 5.58633 17.3077 5.87922C17.6006 6.17212 17.6006 6.64699 17.3077 6.93989L13.3061 10.9415Z" fill="#292758"/>
<path fill-rule="evenodd" clip-rule="evenodd" d="M6.68842 12.7696C6.98131 12.4767 7.45619 12.4767 7.74908 12.7696L11.8575 16.8781C11.8577 16.8782 11.8579 16.8784 11.8581 16.8786C11.9048 16.9248 11.968 16.9507 12.0338 16.9507C12.0995 16.9507 12.1627 16.9248 12.2094 16.8786C12.2096 16.8784 12.2098 16.8782 12.21 16.8781L16.2084 12.8796C16.5013 12.5867 16.9762 12.5867 17.2691 12.8796C17.562 13.1725 17.562 13.6474 17.2691 13.9403L13.2691 17.9403L13.2675 17.9419C12.9396 18.2678 12.4961 18.4507 12.0338 18.4507C11.5714 18.4507 11.1279 18.2678 10.8 17.9419L10.7984 17.9403L6.68842 13.8303C6.39553 13.5374 6.39553 13.0625 6.68842 12.7696Z" fill="#292758"/>
</svg>
