<svg width="34" height="40" fill="none" xmlns="http://www.w3.org/2000/svg"><g clip-path="url(#a)"><path d="M27.773 38.4c-2.16 2.107-4.506 1.773-6.773.773a8.48 8.48 0 0 0-7.12 0c-3.16 1.374-4.826.974-6.72-.773C-3.573 27.2-2 10.2 10.187 9.573c2.973.16 5.04 1.654 6.773 1.787 2.6-.533 5.067-2.067 7.84-1.867 3.334.267 5.827 1.6 7.467 4a8.827 8.827 0 0 0 1.066 15.84c-1.253 3.334-2.88 6.64-5.586 9.08l.026-.013ZM16.747 9.44A9.067 9.067 0 0 1 24.96 0c.64 5.733-5.146 10-8.213 9.44Z" fill="#fff"/></g><defs><clipPath id="a"><path fill="#fff" d="M0 0h33.333v40H0z"/></clipPath></defs></svg>