<svg width="123" height="40" fill="none" xmlns="http://www.w3.org/2000/svg"><g clip-path="url(#a)" fill-rule="evenodd" clip-rule="evenodd" fill="#fff"><path d="M102.305 0h-81.6A19.885 19.885 0 0 0 .934 20a19.886 19.886 0 0 0 19.771 20h81.6a19.888 19.888 0 0 0 19.772-20 19.896 19.896 0 0 0-5.744-14.095A19.883 19.883 0 0 0 102.305 0Zm-.308 37.6H20.934A17.486 17.486 0 0 1 3.562 20.034c0-9.714 7.783-17.6 17.383-17.6h81.063c9.6 0 17.394 7.886 17.394 17.6a17.477 17.477 0 0 1-5.064 12.388 17.488 17.488 0 0 1-12.341 5.178Z"/><path d="M34.086 17.383c-.788 0-.857.731-.857 1.2v.457h1.714v-.457c0-.457-.068-1.2-.857-1.2Zm24.343 0c-.96 0-.846 1.108-.846 1.771v3.417c0 .64-.057 1.612.835 1.612.88 0 .834-.972.834-1.612v-3.428c0-.629.137-1.76-.823-1.76Zm23.589 1.92v2.605c0 .64 0 1.68.914 1.68.263 0 .537-.08.777-.217V18.08a1.525 1.525 0 0 0-.8-.24c-.891 0-.891.788-.891 1.463Zm-60.903-5.189h-.4v9.189h.4c1.086 0 1.428-.4 1.428-1.566V15.68c0-1.166-.342-1.566-1.428-1.566Z"/><path d="M101.904 6.251h-80.88a13.743 13.743 0 0 0 0 27.486h80.88a13.745 13.745 0 0 0 9.718-23.46 13.744 13.744 0 0 0-9.718-4.026Zm-72.537 6.16h9.543v.823h-9.543v-.822Zm-1.829 9.166c0 1.577-.068 2.8-1.291 3.943-1.143 1.086-2.56 1.177-4.08 1.177h-7.086V23.84c.56-.229.617-.731.629-1.268v-7.84c-.012-.56-.057-1.03-.629-1.27v-2.856h6.937c1.372 0 2.938.011 4.08.903 1.315 1.028 1.452 2.491 1.452 4.034v6.034h-.012ZM39.31 18.95v2.788h-6.08v1.097c-.023.572.057 1.349.823 1.349.765 0 .823-.686.823-1.291v-.435h4.422v2.972c-.971.834-2.788 1.383-4.605 1.52-1.806.125-3.623-.172-4.595-.915-1.234-.914-1.291-2.228-1.291-3.657v-3.2c-.08-3.245 1.006-4.537 5.143-4.56 4.354-.011 5.428 1.429 5.348 4.32l.012.012Zm12.708 7.748H40.315V23.84c.606-.366.55-.971.55-1.577V15.04c0-.606.056-1.211-.55-1.577v-2.857h6.092v2.857c-.594.366-.537.971-.537 1.577v8.24h.48c1.28 0 1.257-.766 1.257-1.783v-2.605h4.411v7.805Zm11.657-4.503c0 1.315-.034 2.8-1.097 3.715-1.074.914-2.651 1.028-4 1.028-1.211 0-2.937-.091-3.977-.777-1.44-.96-1.44-2.4-1.44-3.966V19.11c0-1.269.023-2.663 1.132-3.532 1.063-.845 2.514-.96 3.84-.96 1.2 0 3.005.103 4.034.697 1.417.869 1.52 2.286 1.52 3.795v3.085h-.011Zm12.72 4.503h-4.708c-.263-1.2-.24-2.457-.24-3.68v-3.451c0-.08.057-.617-.137-1.052-.297-.457-.777-.8-1.509-.457v4.434c0 .583-.057 1.246.537 1.566v2.64H64.83v-2.64c.571-.343.537-.891.537-1.485v-3.6c0-.64.023-1.052-.537-1.463v-2.652h4.777v.732a5.143 5.143 0 0 1 3.2-.972c.914.034 1.714.343 2.171.789.8.766.892 1.634.892 2.64v4.434c0 .583-.057 1.246.525 1.566V26.697Zm12.286-9.188c-.583.365-.548.868-.548 1.474v7.177c0 1.326.057 3.131-.972 4.126-1.017.994-2.72 1.165-4.068 1.165a9.76 9.76 0 0 1-5.178-1.257V27.36h4.115c0 .263.011.594.114.857.137.263.343.457.709.457.971 0 .857-1.165.857-1.84v-.754c-.789.606-1.76.869-2.606.869-2.228 0-3.508-1.098-3.508-3.68v-4.457c0-2.572.662-4.195 3.302-4.195 1.052 0 2.08.286 2.926.926v-.686h4.857v2.652Zm12.789 9.188h-4.709c-.263-1.2-.24-2.457-.24-3.68v-3.451c0-.08.057-.617-.137-1.052-.297-.457-.788-.8-1.52-.457v4.434c0 .583-.046 1.246.549 1.566v2.64h-5.509v-2.64c.572-.343.537-.891.537-1.485v-7.76c.023-.606.057-1.246-.56-1.555v-2.651h4.983v4.788a5.35 5.35 0 0 1 3.006-.765c.914.034 1.714.343 2.171.788.8.766.903 1.635.903 2.64v4.434c0 .583-.057 1.246.526 1.566v2.64Zm3.657-16.24c1.109 0 2.377.595 2.377 1.874 0 1.28-1.257 1.829-2.343 1.829-1.154 0-2.434-.571-2.434-1.909 0-1.325 1.314-1.794 2.4-1.794Zm2.937 16.24h-5.531v-2.64c.583-.365.548-.891.548-1.485v-3.498c0-.605.057-1.2-.548-1.554v-2.663h4.971v7.623c0 .606-.057 1.2.572 1.566v2.64l-.012.011Z"/></g><defs><clipPath id="a"><path fill="#fff" transform="translate(.934)" d="M0 0h121.143v40H0z"/></clipPath></defs></svg>