<svg width="222" height="40" fill="none" xmlns="http://www.w3.org/2000/svg"><g clip-path="url(#a)"><mask id="b" style="mask-type:luminance" maskUnits="userSpaceOnUse" x="0" y="0" width="222" height="40"><path d="M.078 0h221.053v40H.078V0Z" fill="#fff"/></mask><g mask="url(#b)"><path d="M120.352 37.305h28.505v-3.473h-23.621V22.674h17.747v-3.516h-17.747V8.884h23.621V5.411h-28.505v31.894ZM135.173.253l-3.874 4.315L143.447.253H135.173Zm61.579 33.579V5.41h-4.463v31.894h28.842v-3.473h-24.379Zm-33.937-8.78 7.642-15.241 7.747 15.242h-15.389Zm4.526-19.641-16.21 31.894h5.473l4.169-8.252h19.452l4.19 8.252h5.411L173.615 5.411h-6.274Zm-66.294 14.736H86.141V9.18h15.432c3.537 0 5.537 1.642 6.253 3.768.484 1.432.168 3.327-.632 4.632-1.263 2.105-3.705 2.568-6.147 2.568Zm3.81 3.81c7.305-1.936 8.021-7.367 8-9.325-.442-5.685-4.274-9.243-11.2-9.243H81.552v31.895h4.568V23.916h13.095l9.621 13.368h5.768s-6.926-9.01-9.768-13.347m-50.99 12.105a16.21 16.21 0 0 1-16.315-15.874c0-8.652 7.031-16.21 16.673-16.21a16.042 16.042 0 0 1 16.316 16.21c0 8.674-7.726 15.874-16.673 15.874ZM54.015 0C41.089 0 32.246 9.116 32.246 20.168 32.246 31.79 41.994 40 54.015 40c12.021 0 21.747-8.084 21.747-19.832C75.762 9.116 66.836 0 54.015 0ZM20.71 16.695h3.305L30.036 5.41h-4.842L20.71 16.695ZM4.54 33.832V5.41H.078v31.894H28.92v-3.473H4.52h.021Z" fill="#fff"/></g></g><defs><clipPath id="a"><path fill="#fff" transform="translate(.078)" d="M0 0h221.053v40H0z"/></clipPath></defs></svg>