<svg width="32" height="32" viewBox="0 0 32 32" fill="none" xmlns="http://www.w3.org/2000/svg">
<path fill-rule="evenodd" clip-rule="evenodd" d="M20.3346 10.6667C20.3346 10.1145 20.7824 9.66675 21.3346 9.66675H26.668C27.6404 9.66675 28.5731 10.0531 29.2607 10.7407C29.9483 11.4283 30.3346 12.361 30.3346 13.3334V21.3334C30.3346 22.3059 29.9483 23.2385 29.2607 23.9261C28.5731 24.6138 27.6404 25.0001 26.668 25.0001H24.5365L22.1667 28.5548C22.0005 28.8041 21.7313 28.9657 21.4332 28.9952C21.135 29.0247 20.8394 28.919 20.6275 28.7072L16.9204 25.0001H13.3346C12.3622 25.0001 11.4295 24.6138 10.7419 23.9261C10.0543 23.2385 9.66797 22.3059 9.66797 21.3334C9.66797 20.7811 10.1157 20.3334 10.668 20.3334C11.2203 20.3334 11.668 20.7811 11.668 21.3334C11.668 21.7754 11.8436 22.1994 12.1561 22.5119C12.4687 22.8245 12.8926 23.0001 13.3346 23.0001H17.3346C17.5999 23.0001 17.8542 23.1054 18.0417 23.293L21.1792 26.4304L23.1693 23.4454C23.3547 23.1672 23.6669 23.0001 24.0013 23.0001H26.668C27.11 23.0001 27.5339 22.8245 27.8465 22.5119C28.159 22.1994 28.3346 21.7754 28.3346 21.3334V13.3334C28.3346 12.8914 28.159 12.4675 27.8465 12.1549C27.5339 11.8423 27.11 11.6667 26.668 11.6667H21.3346C20.7824 11.6667 20.3346 11.219 20.3346 10.6667Z" fill="#292758"/>
<path fill-rule="evenodd" clip-rule="evenodd" d="M5.33464 5C4.89261 5 4.46868 5.17559 4.15612 5.48816C3.84356 5.80072 3.66797 6.22464 3.66797 6.66667V14.6667C3.66797 15.1087 3.84356 15.5326 4.15612 15.8452C4.46869 16.1577 4.89261 16.3333 5.33464 16.3333H6.66797C6.93319 16.3333 7.18754 16.4387 7.37508 16.6262L10.668 19.9191L13.9609 16.6262C14.1484 16.4387 14.4028 16.3333 14.668 16.3333H18.668C19.11 16.3333 19.5339 16.1577 19.8465 15.8452C20.159 15.5326 20.3346 15.1087 20.3346 14.6667V6.66667C20.3346 6.22464 20.159 5.80072 19.8465 5.48816C19.5339 5.17559 19.11 5 18.668 5H5.33464ZM2.74191 4.07394C3.42954 3.38631 4.36218 3 5.33464 3H18.668C19.6404 3 20.5731 3.38631 21.2607 4.07394C21.9483 4.76157 22.3346 5.69421 22.3346 6.66667V14.6667C22.3346 15.6391 21.9483 16.5718 21.2607 17.2594C20.5731 17.947 19.6404 18.3333 18.668 18.3333H15.0822L11.3751 22.0404C10.9846 22.431 10.3514 22.431 9.96086 22.0404L6.25376 18.3333H5.33464C4.36217 18.3333 3.42954 17.947 2.74191 17.2594C2.05428 16.5718 1.66797 15.6391 1.66797 14.6667V6.66667C1.66797 5.69421 2.05428 4.76158 2.74191 4.07394Z" fill="#8060F6"/>
</svg>
