<svg width="32" height="32" fill="none" xmlns="http://www.w3.org/2000/svg"><path fill-rule="evenodd" clip-rule="evenodd" d="M18.667 5a1.667 1.667 0 1 0 0 3.333 1.667 1.667 0 0 0 0-3.333ZM15 6.667a3.667 3.667 0 1 1 7.333 0 3.667 3.667 0 0 1-7.333 0ZM19.999 23.667a1.667 1.667 0 1 0 0 3.333 1.667 1.667 0 0 0 0-3.333Zm-3.667 1.667a3.667 3.667 0 1 1 7.333 0 3.667 3.667 0 0 1-7.333 0Z" fill="#8060F6"/><path fill-rule="evenodd" clip-rule="evenodd" d="M10.667 14.333a1.667 1.667 0 1 0 0 3.333 1.667 1.667 0 0 0 0-3.333ZM7 16a3.667 3.667 0 1 1 7.333 0A3.667 3.667 0 0 1 7 16Z" fill="#292758"/><path fill-rule="evenodd" clip-rule="evenodd" d="M3 6.667a1 1 0 0 1 1-1h12a1 1 0 1 1 0 2H4a1 1 0 0 1-1-1ZM20.332 6.667a1 1 0 0 1 1-1h6.667a1 1 0 1 1 0 2h-6.667a1 1 0 0 1-1-1Z" fill="#8060F6"/><path fill-rule="evenodd" clip-rule="evenodd" d="M3 16a1 1 0 0 1 1-1h4a1 1 0 1 1 0 2H4a1 1 0 0 1-1-1ZM12.332 16a1 1 0 0 1 1-1h14.667a1 1 0 1 1 0 2H13.332a1 1 0 0 1-1-1Z" fill="#292758"/><path fill-rule="evenodd" clip-rule="evenodd" d="M3 25.333a1 1 0 0 1 1-1h13.333a1 1 0 1 1 0 2H4a1 1 0 0 1-1-1ZM21.668 25.333a1 1 0 0 1 1-1h5.333a1 1 0 1 1 0 2h-5.333a1 1 0 0 1-1-1Z" fill="#8060F6"/></svg>