<svg width="32" height="32" viewBox="0 0 32 32" fill="none" xmlns="http://www.w3.org/2000/svg">
<path fill-rule="evenodd" clip-rule="evenodd" d="M13.2122 15C10.819 15 8.87891 16.9401 8.87891 19.3333C8.87891 21.7266 10.819 23.6667 13.2122 23.6667C15.6055 23.6667 17.5456 21.7266 17.5456 19.3333C17.5456 16.9401 15.6055 15 13.2122 15ZM6.87891 19.3333C6.87891 15.8355 9.71444 13 13.2122 13C16.71 13 19.5456 15.8355 19.5456 19.3333C19.5456 22.8311 16.71 25.6667 13.2122 25.6667C9.71444 25.6667 6.87891 22.8311 6.87891 19.3333Z" fill="#292758"/>
<path fill-rule="evenodd" clip-rule="evenodd" d="M7.29987 7.49188C7.79406 7.24532 8.39456 7.44606 8.64113 7.94025L11.7211 14.1136C11.9677 14.6078 11.7669 15.2083 11.2728 15.4548C10.7786 15.7014 10.1781 15.5007 9.9315 15.0065L6.8515 8.83313C6.60494 8.33894 6.80568 7.73844 7.29987 7.49188Z" fill="#292758"/>
<path fill-rule="evenodd" clip-rule="evenodd" d="M23.2515 9.29289C23.642 9.68342 23.642 10.3166 23.2515 10.7071L17.6915 16.2671C17.301 16.6576 16.6678 16.6576 16.2773 16.2671C15.8867 15.8766 15.8867 15.2434 16.2773 14.8529L21.8373 9.29289C22.2278 8.90237 22.861 8.90237 23.2515 9.29289Z" fill="#292758"/>
<path fill-rule="evenodd" clip-rule="evenodd" d="M15.8699 22.9974C16.0039 22.4617 16.5468 22.1359 17.0826 22.2698L23.1093 23.7765C23.6451 23.9105 23.9708 24.4534 23.8369 24.9892C23.7029 25.525 23.16 25.8507 22.6242 25.7168L16.5975 24.2101C16.0617 24.0762 15.736 23.5332 15.8699 22.9974Z" fill="#292758"/>
<path fill-rule="evenodd" clip-rule="evenodd" d="M6.54557 4.33325C5.6251 4.33325 4.87891 5.07944 4.87891 5.99992C4.87891 6.92039 5.6251 7.66659 6.54557 7.66659C7.46605 7.66659 8.21224 6.92039 8.21224 5.99992C8.21224 5.07944 7.46605 4.33325 6.54557 4.33325ZM2.87891 5.99992C2.87891 3.97487 4.52053 2.33325 6.54557 2.33325C8.57062 2.33325 10.2122 3.97487 10.2122 5.99992C10.2122 8.02496 8.57062 9.66659 6.54557 9.66659C4.52053 9.66659 2.87891 8.02496 2.87891 5.99992Z" fill="#8060F6"/>
<path fill-rule="evenodd" clip-rule="evenodd" d="M25.2135 24.3333C24.2931 24.3333 23.5469 25.0794 23.5469 25.9999C23.5469 26.9204 24.2931 27.6666 25.2135 27.6666C26.134 27.6666 26.8802 26.9204 26.8802 25.9999C26.8802 25.0794 26.134 24.3333 25.2135 24.3333ZM21.5469 25.9999C21.5469 23.9749 23.1885 22.3333 25.2135 22.3333C27.2386 22.3333 28.8802 23.9749 28.8802 25.9999C28.8802 28.025 27.2386 29.6666 25.2135 29.6666C23.1885 29.6666 21.5469 28.025 21.5469 25.9999Z" fill="#8060F6"/>
<path fill-rule="evenodd" clip-rule="evenodd" d="M24.7865 5.11987C23.4978 5.11987 22.4531 6.16454 22.4531 7.45321C22.4531 8.74187 23.4978 9.78654 24.7865 9.78654C26.0751 9.78654 27.1198 8.74187 27.1198 7.45321C27.1198 6.16454 26.0751 5.11987 24.7865 5.11987ZM20.4531 7.45321C20.4531 5.05997 22.3932 3.11987 24.7865 3.11987C27.1797 3.11987 29.1198 5.05997 29.1198 7.45321C29.1198 9.84644 27.1797 11.7865 24.7865 11.7865C22.3932 11.7865 20.4531 9.84644 20.4531 7.45321Z" fill="#8060F6"/>
</svg>
