<svg width="32" height="32" viewBox="0 0 32 32" fill="none" xmlns="http://www.w3.org/2000/svg">
<path fill-rule="evenodd" clip-rule="evenodd" d="M26.0694 19.7324C26.5117 19.4017 27.1384 19.4921 27.4691 19.9344L30.8291 24.4277C30.8458 24.4499 30.8614 24.4728 30.8761 24.4964C31.0993 24.8533 31.2218 25.2639 31.2307 25.6848C31.2395 26.1056 31.1343 26.521 30.9262 26.887C30.7181 27.2529 30.4149 27.5557 30.0487 27.7634C29.6862 27.9689 29.2753 28.0736 28.8587 28.0666H3.09117C2.67464 28.0736 2.26374 27.9689 1.9012 27.7634C1.53502 27.5557 1.23182 27.2529 1.02374 26.887C0.815661 26.521 0.710452 26.1056 0.719261 25.6848C0.728071 25.2639 0.850571 24.8533 1.07378 24.4964C1.08982 24.4707 1.10702 24.4458 1.12533 24.4217L4.53866 19.9284C4.87274 19.4886 5.50008 19.4029 5.93986 19.737C6.37965 20.071 6.46534 20.6984 6.13126 21.1382L2.75458 25.5832C2.73215 25.6276 2.71987 25.6766 2.71882 25.7266C2.71756 25.7867 2.73259 25.8461 2.76232 25.8984C2.79205 25.9506 2.83536 25.9939 2.88767 26.0236C2.93998 26.0532 2.99934 26.0682 3.05947 26.0668L3.08162 26.0666H28.8683L28.8904 26.0668C28.9506 26.0682 29.0099 26.0532 29.0622 26.0236C29.1146 25.9939 29.1579 25.9506 29.1876 25.8984C29.2173 25.8461 29.2324 25.7867 29.2311 25.7266C29.23 25.6758 29.2174 25.626 29.1942 25.581L25.8674 21.1321C25.5367 20.6898 25.6271 20.0631 26.0694 19.7324Z" fill="#292758"/>
<path fill-rule="evenodd" clip-rule="evenodd" d="M6.53385 6.29321C5.61338 6.29321 4.86719 7.0394 4.86719 7.95988V18.1865C4.86719 19.107 5.61338 19.8532 6.53385 19.8532H25.4672C26.3877 19.8532 27.1339 19.107 27.1339 18.1865V7.95988C27.1339 7.0394 26.3877 6.29321 25.4672 6.29321H6.53385ZM2.86719 7.95988C2.86719 5.93483 4.50881 4.29321 6.53385 4.29321H25.4672C27.4922 4.29321 29.1339 5.93483 29.1339 7.95988V18.1865C29.1339 20.2116 27.4922 21.8532 25.4672 21.8532H6.53385C4.50881 21.8532 2.86719 20.2116 2.86719 18.1865V7.95988Z" fill="#8060F6"/>
</svg>
