<svg width="32" height="32" viewBox="0 0 32 32" fill="none" xmlns="http://www.w3.org/2000/svg">
<path fill-rule="evenodd" clip-rule="evenodd" d="M5.34934 24.4403C5.34926 24.4406 5.34941 24.4401 5.34934 24.4403L4.29642 28.2655C4.14985 28.798 3.59937 29.1108 3.06689 28.9642C2.53441 28.8176 2.22157 28.2672 2.36814 27.7347L3.42189 23.9065C5.27257 17.2243 10.2257 13.6667 15.3323 13.6667C15.8846 13.6667 16.3323 14.1145 16.3323 14.6667C16.3323 15.219 15.8846 15.6667 15.3323 15.6667C11.2391 15.6667 6.99216 18.5098 5.34934 24.4403Z" fill="#292758"/>
<path fill-rule="evenodd" clip-rule="evenodd" d="M15.3307 2.32007C12.2011 2.32007 9.66406 4.85712 9.66406 7.98674C9.66406 11.1163 12.2011 13.6534 15.3307 13.6534C18.4603 13.6534 20.9974 11.1163 20.9974 7.98674C20.9974 4.85712 18.4603 2.32007 15.3307 2.32007ZM7.66406 7.98674C7.66406 3.75255 11.0965 0.320068 15.3307 0.320068C19.5649 0.320068 22.9974 3.75255 22.9974 7.98674C22.9974 12.2209 19.5649 15.6534 15.3307 15.6534C11.0965 15.6534 7.66406 12.2209 7.66406 7.98674Z" fill="#292758"/>
<path fill-rule="evenodd" clip-rule="evenodd" d="M21.9987 18.3467C18.8691 18.3467 16.332 20.8837 16.332 24.0133C16.332 27.143 18.8691 29.68 21.9987 29.68C25.1283 29.68 27.6654 27.143 27.6654 24.0133C27.6654 20.8837 25.1283 18.3467 21.9987 18.3467ZM14.332 24.0133C14.332 19.7792 17.7645 16.3467 21.9987 16.3467C26.2329 16.3467 29.6654 19.7792 29.6654 24.0133C29.6654 28.2475 26.2329 31.68 21.9987 31.68C17.7645 31.68 14.332 28.2475 14.332 24.0133Z" fill="#8060F6"/>
<path fill-rule="evenodd" clip-rule="evenodd" d="M24.7051 22.3329C25.0956 22.7235 25.0956 23.3566 24.7051 23.7471L22.2345 26.2177C22.1212 26.3356 21.9857 26.4302 21.8358 26.4961C21.6768 26.566 21.505 26.6021 21.3313 26.6021C21.1577 26.6021 20.9859 26.566 20.8269 26.4961C20.6768 26.4301 20.5412 26.3353 20.4277 26.2173L19.2923 25.0799C18.9021 24.689 18.9026 24.0558 19.2935 23.6656C19.6844 23.2755 20.3175 23.276 20.7077 23.6669L21.3318 24.292L23.2909 22.3329C23.6814 21.9424 24.3146 21.9424 24.7051 22.3329Z" fill="#8060F6"/>
</svg>
