<svg width="32" height="32" fill="none" xmlns="http://www.w3.org/2000/svg"><path fill-rule="evenodd" clip-rule="evenodd" d="M17.332 5.667a1 1 0 0 1 1 1v18.667a1 1 0 0 1-2 0V6.667a1 1 0 0 1 1-1Z" fill="url(#a)"/><path fill-rule="evenodd" clip-rule="evenodd" d="M13.884 3.165a1 1 0 0 1 .45.835v24.667a1 1 0 0 1-1.337.941l-9.333-3.333A1 1 0 0 1 3 25.333V8a1 1 0 0 1 .606-.92l9.333-4a1 1 0 0 1 .945.085ZM5 8.66v15.97l7.333 2.619V5.517L5 8.659ZM22.668 5.667a1 1 0 0 1 1 1v18.667a1 1 0 0 1-2 0V6.667a1 1 0 0 1 1-1ZM28 5.667a1 1 0 0 1 1 1v18.667a1 1 0 0 1-2 0V6.667a1 1 0 0 1 1-1Z" fill="#8060F6"/><defs><linearGradient id="a" x1="16.332" y1="26.334" x2="20.512" y2="25.883" gradientUnits="userSpaceOnUse"><stop stop-color="#292758"/><stop offset="1" stop-color="#3A1FA0"/></linearGradient></defs></svg>