<svg width="32" height="32" viewBox="0 0 32 32" fill="none" xmlns="http://www.w3.org/2000/svg">
<path fill-rule="evenodd" clip-rule="evenodd" d="M11.6336 8.62611C11.9324 8.36709 12.4422 8.18378 12.9659 8.4255C13.0091 8.44543 13.0508 8.46842 13.0907 8.49429L22.904 14.8543C22.9382 14.8764 22.971 14.9006 23.0022 14.9268C23.1591 15.0582 23.2853 15.2224 23.3719 15.4078C23.4585 15.5933 23.5033 15.7955 23.5033 16.0001C23.5033 16.2048 23.4585 16.407 23.3719 16.5924C23.2853 16.7778 23.1591 16.942 23.0022 17.0735C22.9702 17.1002 22.9366 17.125 22.9016 17.1475L13.0976 23.4615C12.5982 23.795 12.0256 23.6838 11.6638 23.3943C11.3271 23.1249 11.1602 22.7177 11.1602 22.3201V9.68013C11.1602 9.27333 11.332 8.88743 11.6336 8.62611ZM13.1602 10.9226V21.0424L20.9921 15.9984L13.1602 10.9226Z" fill="#8060F6"/>
<path fill-rule="evenodd" clip-rule="evenodd" d="M16.0013 3.66675C9.18979 3.66675 3.66797 9.18857 3.66797 16.0001C3.66797 22.8116 9.18979 28.3334 16.0013 28.3334C22.8128 28.3334 28.3346 22.8116 28.3346 16.0001C28.3346 9.18857 22.8128 3.66675 16.0013 3.66675ZM1.66797 16.0001C1.66797 8.084 8.08522 1.66675 16.0013 1.66675C23.9174 1.66675 30.3346 8.084 30.3346 16.0001C30.3346 23.9162 23.9174 30.3334 16.0013 30.3334C8.08522 30.3334 1.66797 23.9162 1.66797 16.0001Z" fill="#292758"/>
</svg>
