<svg width="32" height="32" viewBox="0 0 32 32" fill="none" xmlns="http://www.w3.org/2000/svg">
<path fill-rule="evenodd" clip-rule="evenodd" d="M6.01731 24.427C6.01719 24.4274 6.01742 24.4266 6.01731 24.427L4.96463 28.2646C4.81853 28.7972 4.26833 29.1106 3.73572 28.9645C3.20311 28.8184 2.88978 28.2682 3.03588 27.7355L4.08986 23.8932C5.94102 17.2092 10.8953 13.6667 16.0003 13.6667C16.5525 13.6667 17.0003 14.1145 17.0003 14.6667C17.0003 15.219 16.5525 15.6667 16.0003 15.6667C11.9055 15.6667 7.65973 18.4984 6.01731 24.427Z" fill="#292758"/>
<path fill-rule="evenodd" clip-rule="evenodd" d="M15.9987 2.30664C12.8691 2.30664 10.332 4.84369 10.332 7.97331C10.332 11.1029 12.8691 13.64 15.9987 13.64C19.1283 13.64 21.6654 11.1029 21.6654 7.97331C21.6654 4.84369 19.1283 2.30664 15.9987 2.30664ZM8.33203 7.97331C8.33203 3.73912 11.7645 0.306641 15.9987 0.306641C20.2329 0.306641 23.6654 3.73912 23.6654 7.97331C23.6654 12.2075 20.2329 15.64 15.9987 15.64C11.7645 15.64 8.33203 12.2075 8.33203 7.97331Z" fill="#292758"/>
<path fill-rule="evenodd" clip-rule="evenodd" d="M22.6667 18.3333C19.5371 18.3333 17 20.8703 17 23.9999C17 27.1295 19.5371 29.6666 22.6667 29.6666C25.7963 29.6666 28.3333 27.1295 28.3333 23.9999C28.3333 20.8703 25.7963 18.3333 22.6667 18.3333ZM15 23.9999C15 19.7657 18.4325 16.3333 22.6667 16.3333C26.9009 16.3333 30.3333 19.7657 30.3333 23.9999C30.3333 28.2341 26.9009 31.6666 22.6667 31.6666C18.4325 31.6666 15 28.2341 15 23.9999Z" fill="#8060F6"/>
<path fill-rule="evenodd" clip-rule="evenodd" d="M19 24C19 23.4477 19.4477 23 20 23H25.3333C25.8856 23 26.3333 23.4477 26.3333 24C26.3333 24.5523 25.8856 25 25.3333 25H20C19.4477 25 19 24.5523 19 24Z" fill="#8060F6"/>
<path fill-rule="evenodd" clip-rule="evenodd" d="M22.668 20.3333C23.2203 20.3333 23.668 20.781 23.668 21.3333V26.6666C23.668 27.2189 23.2203 27.6666 22.668 27.6666C22.1157 27.6666 21.668 27.2189 21.668 26.6666V21.3333C21.668 20.781 22.1157 20.3333 22.668 20.3333Z" fill="#8060F6"/>
</svg>
