<svg width="32" height="32" viewBox="0 0 32 32" fill="none" xmlns="http://www.w3.org/2000/svg">
<path d="M16.1336 30.1331C15.8669 30.1331 15.4669 29.9998 15.3336 29.8665L10.9336 26.5331L7.20026 29.5998C6.93359 29.7331 6.66693 29.8665 6.53359 29.8665C6.26693 29.8665 6.13359 29.8665 5.86693 29.7331C5.60026 29.7331 5.33359 29.5998 5.20026 29.3331C5.06693 29.1998 4.93359 28.9331 4.93359 28.6665V5.46645C4.93359 4.53312 5.33359 3.59979 6.00026 2.93312C6.66693 2.26646 7.60026 1.86646 8.53359 1.86646H23.2003C24.1336 1.86646 25.0669 2.26646 25.7336 2.93312C26.4003 3.59979 26.8003 4.53312 26.8003 5.46645V28.6665C26.8003 28.9331 26.6669 29.1998 26.5336 29.3331C26.4003 29.4665 26.2669 29.7331 26.0003 29.8665C25.7336 29.9998 25.6003 29.9998 25.3336 29.9998C25.0669 29.9998 24.8003 29.8665 24.6669 29.7331L20.5336 26.6665L16.6669 29.9998C16.8003 29.9998 16.4003 30.1331 16.1336 30.1331ZM10.9336 24.3998C11.2003 24.3998 11.6003 24.5331 11.7336 24.6665L16.1336 27.9998L20.0003 24.6665C20.5336 24.2665 21.2003 24.2665 21.6003 24.6665L24.9336 27.3331V5.46645C24.9336 5.06645 24.8003 4.66646 24.4003 4.26645C24.1336 3.99979 23.7336 3.73312 23.2003 3.73312H8.53359C8.26693 3.86645 7.86693 3.99979 7.46693 4.26645C7.20026 4.66646 6.93359 5.06645 6.93359 5.46645V27.1998L10.0003 24.6665C10.2669 24.5331 10.5336 24.3998 10.9336 24.3998Z" fill="#292758"/>
<path fill-rule="evenodd" clip-rule="evenodd" d="M8.45312 8.29346C8.45312 7.74117 8.90084 7.29346 9.45312 7.29346H20.1198C20.6721 7.29346 21.1198 7.74117 21.1198 8.29346C21.1198 8.84574 20.6721 9.29346 20.1198 9.29346H9.45312C8.90084 9.29346 8.45312 8.84574 8.45312 8.29346Z" fill="#8060F6"/>
<path fill-rule="evenodd" clip-rule="evenodd" d="M8.45312 13.6267C8.45312 13.0744 8.90084 12.6267 9.45312 12.6267H16.1198C16.6721 12.6267 17.1198 13.0744 17.1198 13.6267C17.1198 14.179 16.6721 14.6267 16.1198 14.6267H9.45312C8.90084 14.6267 8.45312 14.179 8.45312 13.6267Z" fill="#8060F6"/>
<path fill-rule="evenodd" clip-rule="evenodd" d="M8.45312 18.96C8.45312 18.4077 8.90084 17.96 9.45312 17.96H21.4531C22.0054 17.96 22.4531 18.4077 22.4531 18.96C22.4531 19.5122 22.0054 19.96 21.4531 19.96H9.45312C8.90084 19.96 8.45312 19.5122 8.45312 18.96Z" fill="#8060F6"/>
</svg>
