<svg width="32" height="32" fill="none" xmlns="http://www.w3.org/2000/svg"><path fill-rule="evenodd" clip-rule="evenodd" d="M10.249 8.414c-1.526 1.356-2.581 3.413-2.581 6.252a1 1 0 1 1-2 0c0-3.382 1.278-5.992 3.252-7.747 1.956-1.738 4.535-2.586 7.081-2.586 2.547 0 5.126.848 7.081 2.586 1.974 1.755 3.253 4.365 3.253 7.747a1 1 0 1 1-2 0c0-2.84-1.055-4.896-2.581-6.252C20.209 7.04 18.122 6.333 16 6.333c-2.12 0-4.208.708-5.752 2.08Z" fill="#8060F6"/><path fill-rule="evenodd" clip-rule="evenodd" d="M5.573 16.366c-.92 0-1.667.746-1.667 1.667v5.306c0 .921.746 1.667 1.667 1.667H6.84c.92 0 1.666-.746 1.666-1.666v-5.307c0-.92-.746-1.667-1.666-1.667H5.573Zm-3.667 1.667a3.667 3.667 0 0 1 3.667-3.667H6.84a3.667 3.667 0 0 1 3.666 3.667v5.306a3.667 3.667 0 0 1-3.666 3.667H5.573a3.667 3.667 0 0 1-3.667-3.666v-5.307ZM25.159 16.366c-.92 0-1.667.746-1.667 1.667v5.306c0 .921.746 1.667 1.667 1.667h1.267c.92 0 1.666-.746 1.666-1.666v-5.307c0-.92-.746-1.667-1.666-1.667h-1.267Zm-3.667 1.667a3.667 3.667 0 0 1 3.667-3.667h1.267a3.667 3.667 0 0 1 3.666 3.667v5.306a3.667 3.667 0 0 1-3.666 3.667h-1.267a3.667 3.667 0 0 1-3.667-3.666v-5.307Z" fill="#292758"/></svg>