<svg width="32" height="32" fill="none" xmlns="http://www.w3.org/2000/svg"><path fill-rule="evenodd" clip-rule="evenodd" d="M16.545 3.625a1.667 1.667 0 0 0-1.596.992l-.12.292a3.667 3.667 0 0 1-5.06 1.833l-.005-.003-.267-.14a1.667 1.667 0 0 0-2.288 2.08l.116.27a3.666 3.666 0 0 1-2.31 4.914h-.002l-.292.09a1.666 1.666 0 0 0-.13 3.1l.292.119a3.667 3.667 0 0 1 1.834 5.06l-.003.005-.142.27a1.667 1.667 0 0 0 2.102 2.288l.277-.118a3.667 3.667 0 0 1 4.913 2.31v.002l.09.291a1.668 1.668 0 0 0 3.1.13l.12-.292a3.665 3.665 0 0 1 5.06-1.833l.005.003.27.141a1.667 1.667 0 0 0 2.288-2.102l-.12-.276a3.667 3.667 0 0 1 2.311-4.914h.002l.291-.089a1.666 1.666 0 0 0 .13-3.1l-.292-.12a3.666 3.666 0 0 1-1.833-5.06l.003-.005.141-.27a1.667 1.667 0 0 0-2.101-2.288l-.274.117A3.667 3.667 0 0 1 18.14 5.05l-.003-.011-.089-.291a1.667 1.667 0 0 0-1.504-1.122ZM14.53 2.18a3.667 3.667 0 0 1 5.42 1.94l.009.028.091.3a1.667 1.667 0 0 0 2.23 1.03l.275-.118.024-.01a3.667 3.667 0 0 1 4.638 5.042l-.009.018-.144.274v.003a1.667 1.667 0 0 0 .83 2.295l.287.118.02.009a3.668 3.668 0 0 1-.293 6.838l-.028.009-.304.092a1.672 1.672 0 0 0-1.02.885 1.667 1.667 0 0 0-.032 1.344l.117.275.01.024a3.667 3.667 0 0 1-5.041 4.638l-.018-.01-.275-.143-.002-.001a1.665 1.665 0 0 0-2.296.83l-.118.288-.008.02a3.667 3.667 0 0 1-6.838-.294l-.01-.027-.092-.305a1.67 1.67 0 0 0-1.556-1.177c-.23-.005-.46.038-.673.126l-.274.117-.024.01a3.667 3.667 0 0 1-4.639-5.041l.01-.019.143-.274.002-.003a1.667 1.667 0 0 0-.83-2.295l-.288-.118-.02-.009a3.666 3.666 0 0 1 .293-6.838l.028-.009.304-.092a1.67 1.67 0 0 0 1.177-1.556c.006-.23-.037-.46-.125-.673l-.118-.275-.015-.036a3.667 3.667 0 0 1 5.042-4.602l.023.012.277.145a1.667 1.667 0 0 0 2.296-.83l.117-.288.009-.02c.295-.68.79-1.254 1.418-1.647Z" fill="#8060F6"/><path fill-rule="evenodd" clip-rule="evenodd" d="M16.002 11.787a4.213 4.213 0 1 0 0 8.427 4.213 4.213 0 0 0 0-8.427ZM9.79 16a6.213 6.213 0 1 1 12.427 0 6.213 6.213 0 0 1-12.427 0Z" fill="#292758"/></svg>